<?xml version="1.0" encoding="UTF-8" standalone="no"?>
<!-- Created with Inkscape (http://www.inkscape.org/) -->

<svg
   xmlns:dc="http://purl.org/dc/elements/1.1/"
   xmlns:cc="http://creativecommons.org/ns#"
   xmlns:rdf="http://www.w3.org/1999/02/22-rdf-syntax-ns#"
   xmlns:svg="http://www.w3.org/2000/svg"
   xmlns="http://www.w3.org/2000/svg"
   xmlns:sodipodi="http://sodipodi.sourceforge.net/DTD/sodipodi-0.dtd"
   xmlns:inkscape="http://www.inkscape.org/namespaces/inkscape"
   width="136.8098mm"
   height="167.65932mm"
   viewBox="0 0 136.8098 167.65932"
   version="1.1"
   id="svg8"
   inkscape:version="0.92.3 (2405546, 2018-03-11)"
   sodipodi:docname="pohar.svg">
  <defs
     id="defs2" />
  <sodipodi:namedview
     id="base"
     pagecolor="#ffffff"
     bordercolor="#666666"
     borderopacity="1.0"
     inkscape:pageopacity="0.0"
     inkscape:pageshadow="2"
     inkscape:zoom="0.7"
     inkscape:cx="72.892594"
     inkscape:cy="292.05522"
     inkscape:document-units="mm"
     inkscape:current-layer="layer1"
     showgrid="false"
     inkscape:window-width="1920"
     inkscape:window-height="1005"
     inkscape:window-x="-9"
     inkscape:window-y="-9"
     inkscape:window-maximized="1"
     fit-margin-top="0"
     fit-margin-left="0"
     fit-margin-right="0"
     fit-margin-bottom="0" />
  <metadata
     id="metadata5">
    <rdf:RDF>
      <cc:Work
         rdf:about="">
        <dc:format>image/svg+xml</dc:format>
        <dc:type
           rdf:resource="http://purl.org/dc/dcmitype/StillImage" />
        <dc:title></dc:title>
      </cc:Work>
    </rdf:RDF>
  </metadata>
  <g
     inkscape:label="Layer 1"
     inkscape:groupmode="layer"
     id="layer1"
     transform="translate(-42.581331,-53.491964)">
    <path
       style="fill:none;stroke:#180000;stroke-width:0.26458332px;stroke-linecap:butt;stroke-linejoin:miter;stroke-opacity:1"
       d="m 68.688267,56.991964 c 1.158168,0 2.316337,0 3.474505,0 0.267269,0 0.539729,-0.05242 0.801807,0 0.195344,0.03907 0.339198,0.2282 0.53454,0.267269 0.223256,0.04465 2.022565,0 2.138156,0 0.44545,0 0.896959,0.07323 1.336347,0 0.277895,-0.04632 0.523915,-0.220954 0.801809,-0.267269 0.615143,-0.102524 1.252075,0.07735 1.870888,0 0.36449,-0.04556 0.704588,-0.221708 1.069078,-0.267269 0.353607,-0.0442 0.712718,0 1.069078,0 0.534537,0 1.069078,0 1.603615,0 1.870888,0 3.741775,0 5.612662,0 1.425438,0 2.850875,0 4.276312,0 0.386522,0 1.588654,-0.05645 1.870888,0 0.195342,0.03907 0.345551,0.204271 0.534537,0.267269 0.08452,0.02817 0.187585,-0.03984 0.267269,0 0.112692,0.05635 0.15458,0.210923 0.267272,0.267269 0.07028,0.03514 0.929317,0 1.069078,0 0.712718,0 1.425437,0 2.138156,0 2.227246,0 4.454486,0 6.681736,0"
       id="path3724"
       inkscape:connector-curvature="0" />
    <path
       style="fill:none;stroke:#180000;stroke-width:7;stroke-linecap:butt;stroke-linejoin:miter;stroke-miterlimit:4;stroke-dasharray:none;stroke-opacity:1"
       d="M 68.688267,56.991964 H 154.55576"
       id="path3732"
       inkscape:connector-curvature="0" />
    <path
       style="fill:none;stroke:#180000;stroke-width:7;stroke-linecap:butt;stroke-linejoin:miter;stroke-miterlimit:4;stroke-dasharray:none;stroke-opacity:1"
       d="m 69.810732,53.601642 c 0.0115,4.041206 -1.939463,8.768677 -2.620515,13.007515 -3.539262,22.028239 0.149691,39.882773 14.594257,57.467463 l 16.570711,21.38155 c 11.572005,11.8762 -0.6759,15.32041 1.870885,23.25246 l 3.20723,5.87992 c 2.29235,3.92317 0.81887,7.78401 0.009,9.8714 -0.94285,2.43009 -5.168998,5.19451 -5.168998,5.19451 0,0 -4.737763,1.60105 -6.051864,5.51941 l -1.884319,3.46894"
       id="path4539"
       inkscape:connector-curvature="0"
       sodipodi:nodetypes="csccccsccc" />
    <path
       style="fill:none;stroke:#180000;stroke-width:7;stroke-linecap:butt;stroke-linejoin:miter;stroke-miterlimit:4;stroke-dasharray:none;stroke-opacity:1"
       d="M 42.677862,70.78125 H 64.667378"
       id="path3732-8"
       inkscape:connector-curvature="0" />
    <path
       style="fill:none;stroke:#180000;stroke-width:7;stroke-linecap:butt;stroke-linejoin:miter;stroke-miterlimit:4;stroke-dasharray:none;stroke-opacity:1"
       d="m 46.079648,67.568452 c 0.10277,3.313056 0.300033,9.269491 0.308308,11.282075 l 1.014966,6.475888 c 2.071426,10.478826 10.427978,22.734615 15.387389,28.125375 5.674079,5.84121 17.96301,13.27915 24.522188,17.23868"
       id="path4556"
       inkscape:connector-curvature="0"
       sodipodi:nodetypes="ccccc" />
    <path
       style="fill:none;stroke:#180000;stroke-width:7;stroke-linecap:butt;stroke-linejoin:miter;stroke-miterlimit:4;stroke-dasharray:none;stroke-opacity:1"
       d="M 79.941963,200.0491 72.382439,217.625 149.1116,217.24702 142.11905,200.0491 Z"
       id="path4594"
       inkscape:connector-curvature="0"
       sodipodi:nodetypes="ccccc" />
    <path
       style="fill:none;stroke:#180000;stroke-width:7;stroke-linecap:butt;stroke-linejoin:miter;stroke-miterlimit:4;stroke-dasharray:none;stroke-opacity:1"
       d="m 152.16174,53.747783 c -0.0115,4.041206 1.93946,8.768677 2.62051,13.007515 3.53926,22.028238 -0.14969,39.882772 -14.59425,57.467462 l -16.57072,21.38155 c -11.572,11.8762 0.6759,15.32041 -1.87088,23.25246 l -3.20723,5.87992 c -2.29235,3.92317 -0.81887,7.78401 -0.009,9.8714 0.94285,2.43009 5.16899,5.19451 5.16899,5.19451 0,0 4.73777,1.60105 6.05187,5.51941 l 1.88432,3.46894"
       id="path4539-0"
       inkscape:connector-curvature="0"
       sodipodi:nodetypes="csccccsccc" />
    <path
       style="fill:none;stroke:#180000;stroke-width:7;stroke-linecap:butt;stroke-linejoin:miter;stroke-miterlimit:4;stroke-dasharray:none;stroke-opacity:1"
       d="M 179.29461,70.927391 H 157.30509"
       id="path3732-8-5"
       inkscape:connector-curvature="0" />
    <path
       style="fill:none;stroke:#180000;stroke-width:7;stroke-linecap:butt;stroke-linejoin:miter;stroke-miterlimit:4;stroke-dasharray:none;stroke-opacity:1"
       d="m 175.89282,67.714593 c -0.10277,3.313056 -0.30003,9.269491 -0.30831,11.282075 l -1.01496,6.475889 c -2.07143,10.478825 -10.42798,22.734613 -15.38739,28.125373 -5.67408,5.84121 -17.96301,13.27915 -24.52219,17.23868"
       id="path4556-7"
       inkscape:connector-curvature="0"
       sodipodi:nodetypes="ccccc" />
  </g>
</svg>
